{"url":"https://api.github.com/repos/k4yt3x/video2x/issues/645","repository_url":"https://api.github.com/repos/k4yt3x/video2x","labels_url":"https://api.github.com/repos/k4yt3x/video2x/issues/645/labels{/name}","comments_url":"https://api.github.com/repos/k4yt3x/video2x/issues/645/comments","events_url":"https://api.github.com/repos/k4yt3x/video2x/issues/645/events","html_url":"https://github.com/k4yt3x/video2x/issues/645","id":1231638859,"node_id":"I_kwDOB1EkMc5JaVFL","number":645,"title":"Upscaling shifts all the frames","user":{"login":"sandervankasteel","id":17492906,"node_id":"MDQ6VXNlcjE3NDkyOTA2","avatar_url":"https://avatars.githubusercontent.com/u/17492906?v=4","gravatar_id":"","url":"https://api.github.com/users/sandervankasteel","html_url":"https://github.com/sandervankasteel","followers_url":"https://api.github.com/users/sandervankasteel/followers","following_url":"https://api.github.com/users/sandervankasteel/following{/other_user}","gists_url":"https://api.github.com/users/sandervankasteel/gists{/gist_id}","starred_url":"https://api.github.com/users/sandervankasteel/starred{/owner}{/repo}","subscriptions_url":"https://api.github.com/users/sandervankasteel/subscriptions","organizations_url":"https://api.github.com/users/sandervankasteel/orgs","repos_url":"https://api.github.com/users/sandervankasteel/repos","events_url":"https://api.github.com/users/sandervankasteel/events{/privacy}","received_events_url":"https://api.github.com/users/sandervankasteel/received_events","type":"User","site_admin":false},"labels":[],"state":"open","locked":false,"assignee":null,"assignees":[],"milestone":null,"comments":11,"created_at":"2022-05-10T20:10:53Z","updated_at":"2022-06-29T17:22:02Z","closed_at":null,"author_association":"NONE","active_lock_reason":null,"body":"Hi\r\n\r\nI am trying to upscale some episodes of the Samurai Pizza Cats I have, but from the looks of it the upscaler shifts the entire image / frame. \r\n\r\n**How the output looks like:**\r\n![image](https://user-images.githubusercontent.com/17492906/167697163-92bc0c0a-bfb8-4f69-8c5e-443d8ad19fb8.png)\r\n\r\n**What the input looks like:**\r\n![image](https://user-images.githubusercontent.com/17492906/167709648-f9410249-c30c-4956-99fa-42255636fc43.png)\r\n\r\nThis is the command I used to run upscale my input with\r\n`docker run -it --rm --device=/dev/dri -v $PWD:/host ghcr.io/k4yt3x/video2x:LATEST -i ./input/01.mkv -o ./output/01.mkv -p3 upscale -h 720 -a waifu2x -n3`\r\n\r\nCodec details of the input\r\n\r\n```\r\nVideo                                                   \r\nID                                       : 1 \r\nFormat                                   : AVC\r\nFormat/Info                              : Advanced Video Codec\r\nFormat profile                           : High@L4.1\r\nFormat settings                          : CABAC / 11 Ref Frames\r\nFormat settings, CABAC                   : Yes \r\nFormat settings, Reference frames        : 11 frames     \r\nCodec ID                                 : V_MPEG4/ISO/AVC\r\nDuration                                 : 21 min 5 s\r\nBit rate                                 : 2 800 kb/s\r\nWidth                                    : 768 pixels\r\nHeight                                   : 576 pixels\r\nDisplay aspect ratio                     : 4:3      \r\nFrame rate mode                          : Constant\r\nFrame rate                               : 23.976 (24000/1001) FPS\r\nColor space                              : YUV                                                                         \r\nChroma subsampling                       : 4:2:0\r\nBit depth                                : 8 bits       \r\nScan type                                : Progressive\r\nBits/(Pixel*Frame)                       : 0.264  \r\nStream size                              : 422 MiB (88%)\r\n```\r\n\r\nCodec details of the output\r\n```\r\nVideo                                                                                                                                                                                                                                          \r\nID                                       : 1                                                                                                                                                                                                   \r\nFormat                                   : AVC                                                                                                                                                                                                 \r\nFormat/Info                              : Advanced Video Codec                                                                                                                                                                                \r\nFormat profile                           : High@L5                                                                                                                                                                                             \r\nFormat settings                          : CABAC / 16 Ref Frames                                                                                                                                                                               \r\nFormat settings, CABAC                   : Yes                                                                                                                                                                                                 \r\nFormat settings, Reference frames        : 16 frames                                                                                                                                                                                           \r\nCodec ID                                 : V_MPEG4/ISO/AVC                                                                                                                                                                                     \r\nDuration                                 : 21 min 4 s                                                                                                                                                                                          \r\nBit rate                                 : 2 442 kb/s                                                                                                                                                                                          \r\nWidth                                    : 960 pixels                                                                                                                                                                                          \r\nHeight                                   : 720 pixels                                                                                                                                                                                          \r\nDisplay aspect ratio                     : 4:3                                                                                                                                                                                                 \r\nFrame rate mode                          : Constant                                                                                                                                                                                            \r\nFrame rate                               : 23.976 (24000/1001) FPS                                                                                                                                                                             \r\nColor space                              : YUV                                                                                                                                                                                                 \r\nChroma subsampling                       : 4:2:0                                                                                                                                                                                               \r\nBit depth                                : 8 bits                                                                                                                                                                                              \r\nScan type                                : Progressive                                                                                                                                                                                         \r\nBits/(Pixel*Frame)                       : 0.147                                                                                                                                                                                               \r\nStream size                              : 368 MiB (91%)  \r\n```\r\n\r\nWhen I initially tried it with the Spirited Away example mentioned in the README.md, it worked perfectly. \r\n\r\nCould this behavior be caused by supplying video2x with 4:3 video files instead of 16:9?\r\n","closed_by":null,"reactions":{"url":"https://api.github.com/repos/k4yt3x/video2x/issues/645/reactions","total_count":0,"+1":0,"-1":0,"laugh":0,"hooray":0,"confused":0,"heart":0,"rocket":0,"eyes":0},"timeline_url":"https://api.github.com/repos/k4yt3x/video2x/issues/645/timeline","performed_via_github_app":null,"state_reason":null}